<?xml version="1.0" standalone="no"?>
<!DOCTYPE svg PUBLIC "-//W3C//DTD SVG 20010904//EN"
 "http://www.w3.org/TR/2001/REC-SVG-20010904/DTD/svg10.dtd">
<svg version="1.0" xmlns="http://www.w3.org/2000/svg"
 width="296.000000pt" height="371.000000pt" viewBox="0 0 296.000000 371.000000"
 preserveAspectRatio="xMidYMid meet">

<g transform="translate(0.000000,371.000000) scale(0.100000,-0.100000)"
fill="#000000" stroke="none">
<path d="M5 1855 c0 -1023 1 -1443 2 -933 2 509 2 1346 0 1860 -1 513 -2 96
-2 -927z"/>
<path d="M1327 2930 c-42 -11 -89 -34 -128 -62 -23 -17 -31 -18 -73 -7 -179
45 -356 -62 -397 -239 l-12 -52 -42 0 c-75 0 -135 -28 -200 -94 -84 -84 -95
-122 -95 -324 l0 -156 28 27 c15 15 31 27 35 27 18 0 4 -29 -29 -61 -34 -32
-36 -37 -30 -83 11 -100 28 -121 411 -489 86 -82 92 -90 103 -145 22 -107 104
-194 195 -207 23 -3 256 -5 517 -3 l475 3 46 27 c83 49 128 128 129 227 0 35
30 173 82 375 l83 321 0 270 c0 262 -1 271 -23 317 -32 63 -96 125 -162 157
-44 20 -71 26 -133 27 -74 0 -79 2 -115 35 -45 43 -76 62 -124 78 -55 18 -156
15 -213 -6 l-50 -19 -57 28 c-63 32 -158 44 -221 28z m148 -180 c28 -11 62
-45 82 -83 12 -23 18 -64 21 -140 4 -93 6 -108 21 -105 13 3 17 22 21 113 5
120 13 141 64 180 42 32 115 34 164 5 52 -32 72 -87 72 -202 0 -89 2 -98 19
-98 15 0 19 10 23 51 9 87 67 143 148 143 56 0 91 -20 128 -74 21 -32 22 -42
22 -245 l0 -211 -81 -325 c-44 -178 -84 -359 -88 -401 -5 -62 -11 -82 -31
-103 l-23 -25 -460 0 -459 0 -29 29 c-21 22 -29 39 -29 66 0 76 5 71 -368 431
-63 60 -120 121 -128 136 -11 20 -14 73 -14 215 0 170 2 191 20 221 61 100
207 96 261 -8 16 -29 19 -58 19 -172 0 -127 1 -138 20 -148 20 -11 20 -8 20
286 0 327 3 343 63 386 43 31 122 35 164 9 53 -34 67 -65 73 -165 4 -76 8 -91
23 -94 15 -3 17 7 17 101 0 89 3 110 23 147 45 86 129 116 222 80z"/>
<path d="M1010 700 c0 -5 6 -10 13 -10 6 -1 0 -8 -15 -16 -32 -17 -36 -39 -12
-65 14 -15 15 -24 6 -46 -26 -64 -23 -171 4 -180 15 -5 34 42 34 82 0 29 5 36
44 54 44 22 98 88 101 124 3 30 -23 47 -73 48 -26 1 -50 1 -54 0 -5 0 -8 4 -8
9 0 6 -9 10 -20 10 -11 0 -20 -4 -20 -10z m104 -92 c-10 -12 -13 -18 -5 -13
10 5 12 4 7 -4 -4 -6 -20 -18 -37 -26 -29 -15 -29 -15 -29 13 0 36 16 52 54
52 29 0 29 0 10 -22z"/>
<path d="M2055 701 c-13 -6 -25 -27 -34 -57 -8 -27 -18 -54 -23 -61 -5 -7 -6
-18 -2 -25 4 -7 3 -10 -1 -5 -11 9 -55 -92 -48 -110 3 -7 9 -10 14 -7 5 3 8 0
7 -7 -2 -6 2 -13 9 -16 7 -2 19 12 27 32 10 23 26 40 48 49 27 12 29 15 12 19
-12 3 -7 5 14 6 18 0 31 -3 28 -8 -3 -5 1 -26 10 -46 10 -24 11 -34 3 -30 -6
4 -10 4 -7 -1 2 -5 10 -23 17 -41 23 -58 39 -31 38 64 0 76 2 87 19 94 17 7
17 8 -3 8 -22 1 -32 21 -49 108 -8 38 -37 51 -79 34z m35 -116 c0 -23 -25 -42
-35 -25 -7 12 16 61 26 54 5 -3 9 -16 9 -29z"/>
<path d="M1388 692 c-57 -3 -65 -9 -59 -45 1 -4 -3 -16 -8 -25 -5 -10 -11 -47
-12 -82 -1 -36 -7 -77 -13 -92 -5 -15 -7 -30 -4 -34 4 -3 48 0 98 7 57 7 86
15 78 20 -10 7 -9 9 5 9 9 0 17 7 17 16 0 14 -11 16 -79 12 -71 -4 -79 -3 -78
13 1 10 4 16 8 13 4 -2 9 5 12 16 4 14 14 20 34 20 15 0 45 5 66 11 33 9 36
13 26 25 -10 12 -24 14 -62 9 -44 -7 -49 -5 -44 10 4 9 7 21 7 26 0 5 15 9 33
10 30 1 31 1 7 9 -20 7 -16 8 23 9 33 1 49 6 54 16 10 29 -5 32 -109 27z"/>
<path d="M1549 689 c-24 -15 -50 -231 -29 -244 6 -3 10 -16 11 -28 0 -12 3
-17 5 -11 3 6 15 9 28 7 26 -5 109 28 138 54 12 10 16 24 12 37 -4 16 -3 18 5
7 7 -11 11 -6 16 22 14 76 -42 146 -125 157 -27 3 -55 3 -61 -1z m128 -70 c16
-14 17 -50 2 -83 -10 -21 -78 -56 -109 -56 -11 0 12 144 24 153 14 9 64 1 83
-14z"/>
<path d="M1788 683 c-33 -21 -34 -26 -11 -48 14 -15 15 -21 4 -49 -38 -93 -39
-167 -3 -172 20 -4 22 0 22 39 0 66 14 77 39 31 35 -67 112 -137 125 -115 10
15 -5 43 -52 99 -25 29 -43 54 -41 56 2 2 14 9 26 15 13 6 28 21 34 34 12 21
11 21 -7 7 -18 -15 -18 -14 -1 12 18 30 12 63 -17 87 -26 22 -88 24 -118 4z
m111 -39 c8 -8 -10 -33 -38 -53 l-31 -22 0 26 c0 43 18 67 43 59 12 -3 24 -8
26 -10z"/>
<path d="M1230 663 c0 -16 -7 -66 -16 -113 -15 -86 -11 -160 8 -160 23 0 37
37 38 95 0 33 7 89 15 125 7 35 11 68 9 72 -3 4 -16 8 -30 8 -20 0 -24 -5 -24
-27z"/>
</g>
</svg>
