<?xml version="1.0" standalone="no"?>
<!DOCTYPE svg PUBLIC "-//W3C//DTD SVG 20010904//EN"
 "http://www.w3.org/TR/2001/REC-SVG-20010904/DTD/svg10.dtd">
<svg version="1.0" xmlns="http://www.w3.org/2000/svg"
 width="331.000000pt" height="370.000000pt" viewBox="0 0 331.000000 370.000000"
 preserveAspectRatio="xMidYMid meet">

<g transform="translate(0.000000,370.000000) scale(0.100000,-0.100000)"
fill="#000000" stroke="none">
<path d="M950 3201 c-105 -22 -211 -113 -248 -214 -62 -166 10 -351 166 -430
l69 -34 -107 -5 c-93 -5 -115 -9 -172 -37 -76 -36 -129 -90 -167 -170 -22 -47
-26 -70 -26 -141 0 -73 4 -93 28 -142 35 -72 97 -134 167 -167 53 -25 62 -26
275 -29 l220 -3 0 -62 c1 -34 9 -85 19 -114 19 -56 90 -144 136 -168 23 -12
28 -23 33 -65 13 -109 84 -210 177 -254 42 -20 61 -21 305 -21 l260 0 293 74
c327 82 370 101 434 186 43 57 66 115 75 193 4 40 2 56 -7 62 -11 7 -11 14 -2
35 16 36 16 275 0 311 -10 22 -10 28 0 32 18 6 17 476 -2 553 -24 103 -91 189
-188 241 -42 22 -53 23 -373 28 l-330 6 -440 167 c-458 175 -504 188 -595 168z
m346 -255 c594 -228 673 -256 715 -256 l44 -1 -81 -77 c-124 -117 -124 -117
-124 -308 l0 -160 -160 -73 -159 -72 -394 3 -394 3 -36 28 c-20 15 -42 38 -48
50 -57 105 1 233 115 257 33 7 205 9 474 8 l422 -3 0 45 0 46 -127 46 c-364
132 -609 230 -637 256 -73 69 -73 188 2 255 31 28 93 48 133 42 20 -3 135 -43
255 -89z m1321 -277 c29 -14 52 -35 68 -64 l26 -43 -3 -505 c-3 -495 -3 -506
-24 -534 -41 -55 -78 -69 -356 -139 -249 -62 -284 -69 -398 -72 -69 -2 -123
-2 -120 1 3 3 100 49 215 102 116 53 222 108 237 122 56 53 75 145 44 216 -17
39 -71 92 -110 107 l-29 11 21 22 c41 43 52 99 52 258 l0 149 -25 0 -25 0 0
-160 c0 -177 -5 -197 -60 -244 -26 -22 -41 -26 -90 -26 -52 0 -64 4 -93 30
-56 49 -58 62 -55 326 3 277 -10 240 135 377 l93 87 227 0 c210 0 230 -2 270
-21z m-767 -642 c0 -80 36 -143 100 -174 37 -19 39 -23 23 -31 -88 -46 -456
-205 -484 -209 -80 -11 -150 52 -157 141 -7 94 20 117 263 226 55 25 129 59
165 77 36 17 71 32 78 32 8 1 12 -18 12 -62z m359 -225 c90 -66 92 -189 5
-248 -18 -11 -142 -71 -277 -132 -269 -122 -298 -130 -358 -89 -80 53 -91 178
-22 240 18 15 376 185 503 238 52 22 112 18 149 -9z"/>
<path d="M2593 690 c-13 -5 -23 -18 -23 -30 0 -11 -4 -28 -9 -38 -9 -17 -26
-56 -55 -126 -9 -21 -16 -48 -16 -60 0 -17 -7 -13 -39 24 l-40 45 25 18 c13
11 29 29 36 40 11 21 10 21 -7 7 -18 -15 -18 -14 -1 15 26 44 9 80 -43 96 -35
10 -46 10 -81 -6 -43 -19 -47 -26 -27 -47 16 -15 14 -30 -9 -113 -20 -70 -14
-110 16 -112 12 -1 20 5 21 15 7 101 11 107 37 55 23 -45 108 -127 122 -118 5
3 8 23 6 43 -3 20 -2 29 0 20 8 -28 22 -21 41 20 13 27 28 40 53 48 33 11 34
12 10 17 -21 3 -19 5 9 6 26 1 32 -2 27 -14 -3 -8 -1 -15 5 -15 5 0 9 -15 8
-32 -2 -42 23 -99 38 -90 8 5 11 36 10 90 -2 72 0 83 17 88 17 6 16 7 -5 18
-17 8 -27 27 -37 71 -8 33 -15 61 -16 62 -5 8 -56 10 -73 3z m-162 -50 c21 0
6 -37 -24 -58 -30 -21 -32 -21 -35 -4 -5 32 16 75 34 68 9 -3 20 -6 25 -6z
m199 -65 c0 -12 -6 -25 -14 -28 -21 -8 -25 2 -14 34 11 33 28 30 28 -6z"/>
<path d="M1586 681 c-21 -8 -31 -41 -13 -42 7 0 21 -3 32 -5 11 -3 28 -5 38
-5 15 0 17 -5 10 -37 -4 -20 -8 -63 -8 -94 0 -32 -3 -58 -7 -58 -15 0 -8 -49
9 -66 16 -15 17 -15 24 2 5 12 8 14 8 5 1 -8 3 -12 6 -10 2 3 2 15 -2 28 -4
17 -8 19 -14 9 -7 -10 -9 -9 -9 5 0 10 7 20 15 23 8 4 15 14 15 23 0 9 7 55
16 102 l17 87 37 6 c21 3 40 13 44 21 5 13 -10 15 -97 14 -56 0 -111 -4 -121
-8z"/>
<path d="M2011 595 c-8 -52 -18 -95 -23 -95 -5 0 -6 -4 -3 -10 3 -5 -3 -20
-14 -32 l-21 -22 0 33 c0 25 -4 32 -14 28 -8 -3 -17 -1 -19 6 -9 23 -29 -10
-31 -49 -2 -53 20 -76 69 -72 55 4 72 34 95 167 23 131 23 134 10 126 -5 -3
-10 -1 -10 4 0 6 -6 11 -13 11 -9 0 -17 -29 -26 -95z"/>
<path d="M2168 683 c-46 -3 -58 -8 -60 -21 -1 -21 -3 -31 -11 -62 -4 -14 -9
-52 -12 -85 -2 -33 -7 -72 -11 -87 -7 -33 -10 -32 104 -16 51 7 78 14 70 19
-10 7 -9 9 5 9 9 0 17 7 17 16 0 14 -11 16 -80 12 -44 -3 -79 -2 -77 1 1 3 9
18 16 34 10 19 22 27 40 27 14 0 43 5 64 11 33 9 36 13 26 25 -10 12 -24 14
-62 9 -44 -7 -49 -5 -44 10 4 9 7 21 7 26 0 5 15 10 33 10 l32 1 -30 8 c-28 7
-28 8 12 9 51 1 73 9 73 26 0 14 -24 26 -43 23 -7 -1 -38 -3 -69 -5z"/>
<path d="M1810 621 c-7 -33 -9 -65 -5 -72 5 -8 4 -10 -3 -5 -11 7 -18 -55 -14
-123 4 -71 52 -37 52 36 0 24 7 78 16 120 17 83 14 103 -14 103 -15 0 -22 -12
-32 -59z"/>
</g>
</svg>
